{"title":"Ice.Age.A.Mammoth.Christmas.DVDRip.XviD-3LT0N","uid":6838390,"size":214235205,"categoryP":"video","categoryS":"movies","magnet":"?xt=urn:btih:acfa227eb050022db6cbdbfe869c05752814ec6d&amp;dn=Ice.Age.A.Mammoth.Christmas.DVDRip.XviD-3LT0N&amp;tr=udp%3A%2F%2Ftracker.openbittorrent.com%3A80&amp;tr=udp%3A%2F%2Fopen.demonii.com%3A1337&amp;tr=udp%3A%2F%2Ftracker.coppersurfer.tk%3A6969&amp;tr=udp%3A%2F%2Fexodus.desync.com%3A6969","seeders":0,"leechers":0,"uploader":null,"files":3,"time":1322084259,"description":"Ice.Age.A.Mammoth.Christmas.DVDRip.XviD-3LT0N\n &lt;a href=&quot;\nhttp://www.imdb.com/title/tt2100546/&quot; rel=&quot;nofollow&quot; target=&quot;_NEW&quot;&gt;\nhttp://www.imdb.com/title/tt2100546/&lt;/a&gt;\n\nGeneral\nFull name: Ice.Age.A.Mammoth.Christmas.DVDRip.XviD-3LT0N.avi\nFormat: AVI\nFormat / Info: Audio Video Interleave\nFile size: 204 MiB\nDuration: 25mn 29s\nOverall bit rate: 1 120 Kbps\nProgram used: FairUse Wizard - http://fairusewizard.com\nLibrary used: VirtualDub build 32842/release\n\nVideo\nID: 0\nFormat: MPEG-4 Visual\nFormat profile: Simple @ L5 Advanced\nConf format, BVOP: 2\nConf Format settings, QPel: No\nConf format, GMC: No warppoints\nConf format, Matrix: Default (H.263)\nMultiplexing mode: Packed bitstream\nCodec ID: XVID\nCodec ID / Hint: XviD\nDuration: 25mn 29s\nBit rate: 983 Kbps\nWidth: 640 pixels\nHeight: 352 pixels\nAspect ratio: 16:9\nFrame rate: 23.976 fps\nColorSpace: YUV\nChromaSubsampling: 4:2:0\nBitDepth / String: 8 bits\nScan type: Progressive\nBits / (Pixel * Frame): 0182\nStream size: 179 MiB (88%)\nLibrary used: XviD 1.2.1 (UTC 12/04/2008)\n\nAudio\nID: 1\nFormat: MPEG Audio\nFormat version: Version 1\nFormat profile: Layer 3\nFormat_Settings_Mode: Joint stereo\nCodec ID: 55\nCodec ID / Hint: MP3\nDuration: 25mn 29s\nBit rate mode: Constant\nBit rate: 128 Kbps\nNumber of channels: 2 channels\nSampling rate: 48.0 KHz\nStream size: 23.3 MiB (11%)\nAlignment: Aligned interspersed\nRange, duration: 42 ms (1.00 video frame)\nInterval, duration of pre-load: 504 ms\nLibrary usage: LAME3.97\nEncoding settings:-mj-V 4-q 2-lowpass 17-b 128","torrent":{"xt":"urn:btih:acfa227eb050022db6cbdbfe869c05752814ec6d","amp;dn":"Ice.Age.A.Mammoth.Christmas.DVDRip.XviD-3LT0N","amp;tr":["udp%3A%2F%2Ftracker.openbittorrent.com%3A80","udp%3A%2F%2Fopen.demonii.com%3A1337","udp%3A%2F%2Ftracker.coppersurfer.tk%3A6969","udp%3A%2F%2Fexodus.desync.com%3A6969"],"infoHash":"acfa227eb050022db6cbdbfe869c05752814ec6d","infoHashBuffer":{"type":"Buffer","data":[172,250,34,126,176,80,2,45,182,203,219,254,134,156,5,117,40,20,236,109]},"announce":[],"urlList":[]}}